<svg id="Layer_1" data-name="Layer 1" xmlns="http://www.w3.org/2000/svg" viewBox="0 0 720 720"><defs><style>.cls-1{fill:#1076f6;}.cls-2{fill:#cf302b;}</style></defs><title>dashboardUser</title><path class="cls-1" d="M379.74,566.86c-92.59,0-167.9-75.32-167.9-167.91a8.91,8.91,0,0,1,8.91-8.92h26.54a8.93,8.93,0,0,1,0,17.85H229.94C234.57,486.49,300,549,379.74,549c82.74,0,150-67.32,150-150,0-79.74-62.52-145.15-141.12-149.79v16.76a8.93,8.93,0,0,1-17.85,0V240a8.93,8.93,0,0,1,8.93-8.93c92.57,0,167.89,75.32,167.89,167.9S472.31,566.86,379.74,566.86Z"/><path class="cls-1" d="M379.06,288.05a8.92,8.92,0,0,0-8.94,8.92v16.75a9.42,9.42,0,0,0,.14,1.51v75.52H296a8.94,8.94,0,0,0-1.27-.1H277.89a8.93,8.93,0,0,0-8.94,8.92c0,61.52,49.4,111.54,110.11,111.54s110.09-50,110.09-111.54S439.75,288.05,379.06,288.05Zm0,205.21c-47.89,0-87.36-37.21-91.83-84.65h91.95a8.92,8.92,0,0,0,8.94-8.94V306.36C434.75,311,471.3,351,471.3,399.57,471.3,451.24,429.92,493.26,379.06,493.26Z"/><path class="cls-2" d="M347.36,378.68H313.3a8.93,8.93,0,0,1-8.94-8.91V162.07a8.93,8.93,0,0,1,8.94-8.92h34.06a8.92,8.92,0,0,1,8.94,8.92v207.7A8.92,8.92,0,0,1,347.36,378.68Zm-25.14-17.84h16.23V171H322.22Z"/><path class="cls-2" d="M281.38,378.68H247.29a8.91,8.91,0,0,1-8.91-8.91V214a8.92,8.92,0,0,1,8.91-8.93h34.09a8.92,8.92,0,0,1,8.91,8.93V369.77A8.91,8.91,0,0,1,281.38,378.68Zm-25.17-17.84h16.23V222.93H256.21Z"/><path class="cls-2" d="M215.37,378.68H181.28a8.91,8.91,0,0,1-8.91-8.91V260.53a8.92,8.92,0,0,1,8.91-8.93h34.09a8.93,8.93,0,0,1,8.93,8.93V369.77A8.92,8.92,0,0,1,215.37,378.68Zm-25.15-17.84h16.23V269.45H190.22Z"/><path class="cls-1" d="M477.2,382.8a8.93,8.93,0,0,1-2.91-17.37l55.32-19a8.92,8.92,0,1,1,5.8,16.88l-55.32,19A9.56,9.56,0,0,1,477.2,382.8Z"/><path class="cls-1" d="M362.58,565.92c-.27,0-.54,0-.81,0a9,9,0,0,1-8.11-9.69l4.93-55.51a8.92,8.92,0,0,1,17.77,1.58l-4.91,55.51A8.91,8.91,0,0,1,362.58,565.92Z"/></svg>