<svg id="Layer_1" data-name="Layer 1" xmlns="http://www.w3.org/2000/svg" viewBox="0 0 720 720"><defs><style>.cls-1{fill:#cf302b;fill-rule:evenodd;}.cls-2{fill:#1076f6;}</style></defs><title>helpCenter</title><path class="cls-1" d="M453.63,343.47c0,19.14.21,38.28-.17,57.41-.06,4.62-2,9.18-3.1,13.78-.53,2.36-1.35,4.76-1.39,7.14-.14,15-.14,30-.09,45,0,12.14-3.43,23.1-11.74,32.06-9.34,10.09-13,22-12.53,35.47.18,5,.22,10,0,15C424,561.19,416,568.83,404,569c-6.68.09-13.32,0-20,0-4.59,0-8-1.71-8.12-6.62-.14-5.29,3.38-7.17,8.21-7.13,3.34,0,6.66,0,10,0,16.9,0,16.87,0,16.83-17.16,0-3.32,0-6.66.09-10,.44-13.31,4.3-25.45,13.47-35.36,8-8.62,11.18-18.57,10.74-30.25-.44-12.21-.1-24.46-.1-36.76-4-.49-7.47-.89-11.5-1.37-1,12.15-6,21.55-19.22,23.72-10.82,1.8-18.34-3.48-23.86-12.69-9.87,3.49-18.82,2.44-26.3-5.43-7.28-7.67-5.2-17.49-5.78-27-3.33.26-6.39.83-9.39.65-12.32-.72-20.68-10-20.85-23.56-.19-17.67,0-35.37,0-53.07,0-4.16.09-8.34-.12-12.49-.41-8.13-5.51-13.16-12.93-13-7,.17-12.26,5.36-12.29,13.05q-.15,61.2.14,122.38c0,1.87,2.3,4.72,4.17,5.51,28.59,11.71,45.14,33,51.11,63,.1.6.23,1.23.32,1.84.73,4.49-.58,8.16-5.35,9s-7.21-2.05-8.19-6.53A110,110,0,0,0,332,497.1c-7.38-21.85-22.4-35.88-44.05-43.46a21.39,21.39,0,0,1-9.77-7.67c-6.46-9.4-12.12-19.37-18.2-29.09-4.81-7.68-11.92-9.9-18.42-5.95s-7.79,11.48-3.21,19.09c14.82,24.56,29.43,49.29,44.75,73.56,6.9,11,11,22.25,9.81,35.28-.24,2.68.05,5.42,0,8.12-.22,5.71,2.32,8.52,8.17,8.38,6.24-.14,12.49-.06,18.75-.06,4.52,0,8,1.72,8,6.68.09,5.31-3.42,7.07-8.28,7.06-6.86-.06-13.72.1-20.58-.06-10.63-.24-18.5-7.59-19.63-18.09a9.35,9.35,0,0,1-.13-2.47c2.68-18.27-4.26-33.38-14.06-48.3-13.82-21-26.34-42.87-39.33-64.45-5.52-9.17-5.61-18.68,0-27.79,5.32-8.67,13.46-12.88,23.66-12.39,8.89.44,15.87,4.58,20.79,12,2.59,3.94,5,8,8.45,13.39.22-3.51.44-5.46.44-7.38,0-31.24.93-62.47-.26-93.66-.82-20.55,14.71-39,38.87-29.7C322.6,283,328,276.45,331.82,269c2.92-5.71,4.21-12.43,5.34-18.87.8-4.65,0-9.55.19-14.32.36-9.34,7-16.33,16.25-16.4q41.82-.28,83.67,0c9.14.05,17.09,7.23,16.06,16.38-1.86,16.3,5.17,28.84,13.38,41.63,9.86,15.39,19.24,31.13,28.5,46.92a21.78,21.78,0,0,1-7.36,30c-10.35,6.33-23,3.42-30.13-7-1-1.48-2-3-3-4.46C454.34,343.14,454,343.32,453.63,343.47Zm-13.7,16.65h0c0-13.55,0-27.07,0-40.6,0-4.21.39-8.12,5.29-9.35,4.52-1.15,6.78,1.85,8.86,5.23,5,8.16,10,16.32,15.13,24.37,2.39,3.7,6.39,5.84,10.11,3.29,2.58-1.77,4.17-5.66,5-8.9.45-1.68-1.58-4.11-2.76-6.06C471.18,311,461.21,293.66,450.32,277c-7.42-11.41-12.09-23.13-10.39-36.88.68-5.51-1.68-7.19-7.11-7.14-23.32.24-46.62.08-69.93.12-13,0-12-1.41-11.8,11.55.26,14.92-3.24,28.11-13.21,39.84-3.56,4.17-5.48,10.93-5.61,16.58-.62,26.2-.32,52.44-.35,78.66a17.17,17.17,0,0,0,.25,3.11c.81,4.52,3.71,7.1,8.15,7.12s7.33-2.71,8.19-7.14a29.92,29.92,0,0,0,.18-5.61c0-10.8-.06-21.62,0-32.45,0-4.43,2.48-7.13,7-7,4.23.06,6.24,2.84,6.6,6.85.15,1.67.06,3.35.06,5,0,21-.1,42,.13,63.06,0,2.89.76,6.63,2.65,8.41s6.44,2.87,8.2,1.74c2.62-1.71,5.31-5.6,5.38-8.6.44-21.43.24-42.87.24-64.3,0-8.92,1.94-12.28,7-12.18,4.9.07,6.67,3.15,6.67,11.81V393.8c0,10.62,0,21.25.07,31.87.05,5.35,2.76,8.69,8.21,9.12,4.63.37,8-3.37,8.48-8.86.14-1.65.08-3.32.08-5V362.27c0-6.06-.15-12.1.09-18.12.17-4.13,2.81-7.19,6.8-6.26,2.53.59,4.78,3.67,6.43,6.11.9,1.31.3,3.65.3,5.52,0,17.06,0,34.14,0,51.18,0,7.06,3.07,10.92,8.33,10.91s8.34-4,8.35-10.91C440,387.15,439.93,373.63,439.93,360.12Z"/><path class="cls-2" d="M500.35,485.79a10.2,10.2,0,0,1-7.58-17,178.08,178.08,0,0,0,45.56-119.09c0-98.34-80-178.34-178.33-178.34s-178.33,80-178.33,178.34a179.4,179.4,0,0,0,5,42.09,10.21,10.21,0,1,1-19.84,4.8,200.39,200.39,0,0,1-5.55-46.89C161.26,240.1,250.41,151,360,151S558.74,240.1,558.74,349.69a198.26,198.26,0,0,1-50.81,132.7A10.09,10.09,0,0,1,500.35,485.79Z"/></svg>