<svg id="Layer_1" data-name="Layer 1" xmlns="http://www.w3.org/2000/svg" viewBox="0 0 720 720"><defs><style>.cls-1{fill:#1076f6;}.cls-2{fill:#cf302b;}</style></defs><title>myAccount</title><polygon class="cls-1" points="343.44 415.45 360.59 466.5 376.54 415.45 343.44 415.45"/><path class="cls-2" d="M461.41,335.09H439.54a8.4,8.4,0,1,1,0-16.79h45.39c10.36-.21,21.94-3.44,23.2-6.51.28-.71-.3-4.19-6.68-10.76-18.75-19.37-67.33-67-113.13-91.56C373.15,201.36,364.73,194.34,360,188c-5.37,7.13-14.59,14.11-28.34,21.45C285.93,234,237.31,281.66,218.54,301c-6.34,6.56-7,10.05-6.66,10.76,1.26,3.07,12.84,6.3,23.37,6.52h45.22a8.4,8.4,0,1,1,0,16.79H235.1c-5.48-.1-32.33-1.36-38.76-16.9-3.52-8.55-.11-18.26,10.14-28.85,19.32-19.94,69.44-69.07,117.28-94.66,18.69-10,23.51-16.84,24.71-20a11.4,11.4,0,0,0,.67-3.4c.23-2.32.92-9.37,8.76-11.41a8.45,8.45,0,0,1,4.21,0c7.84,2,8.55,9.1,8.77,11.42.29,3.11,1,10.39,25.37,23.42,47.88,25.61,97.94,74.74,117.25,94.66,10.27,10.59,13.69,20.3,10.14,28.85-6.4,15.54-33.25,16.8-38.56,16.89Z"/><path class="cls-1" d="M360,406a85.21,85.21,0,0,1-82.48-106.33,8.38,8.38,0,0,1,16.24,4.18,69.66,69.66,0,0,0-2.13,17,68.36,68.36,0,1,0,136.72,0,69.66,69.66,0,0,0-2.12-17,8.39,8.39,0,0,1,16.26-4.18,86.57,86.57,0,0,1,2.64,21.19A85.24,85.24,0,0,1,360,406Z"/><path class="cls-1" d="M506.31,560.42H213.68A8.39,8.39,0,0,1,205.3,552V499.37a92.42,92.42,0,0,1,92.32-92.31H422.37a92.43,92.43,0,0,1,92.32,92.31V552A8.39,8.39,0,0,1,506.31,560.42ZM222.08,543.64H497.91V499.37a75.61,75.61,0,0,0-75.54-75.52H297.62a75.63,75.63,0,0,0-75.54,75.52Z"/><path class="cls-2" d="M208.87,314.94a8.4,8.4,0,0,1-1.4-16.67c1.27-.21,129.38-21.37,304.68-.06a8.39,8.39,0,1,1-2,16.66c-172.9-21-298.58-.27-299.82-.05A9.84,9.84,0,0,1,208.87,314.94Z"/></svg>