<svg id="Layer_1" data-name="Layer 1" xmlns="http://www.w3.org/2000/svg" viewBox="0 0 720 720"><defs><style>.cls-1{fill:#cf302b;}.cls-2{fill:#1076f6;fill-rule:evenodd;}</style></defs><title>myBooking</title><path class="cls-1" d="M453.59,477c-32.43,0-56.92-12.66-56.92-29.42,0-13.18,14.49-23.83,37.78-27.81A7.23,7.23,0,0,1,436.88,434c-17.55,3-25.75,9.87-25.75,13.56,0,6,16.94,14.95,42.46,14.95s42.44-9,42.44-14.95c0-3.62-8-10.38-25-13.44a7.23,7.23,0,0,1,2.53-14.23c22.81,4.09,37,14.69,37,27.67C510.49,464.32,486,477,453.59,477Z"/><path class="cls-1" d="M454.45,447.36h0c-2.64,0-6.63-1-10.47-5.74-5.24-6.53-9.5-12.07-13.39-17.47-12.77-17.7-27.16-39.14-36.91-63.87-5.43-13.78-7.68-25.44-7.12-36.66,1.38-26.09,18.8-49.83,43.33-59.13a61.3,61.3,0,0,1,39.71-3.25,66.71,66.71,0,0,1,42.71,30.89,69,69,0,0,1,7.49,54.27c-4.58,17.07-12.42,33.86-23.94,51.34C488.24,409.28,480,420.61,472,431.53l-7,9.72C461.31,446.32,457.24,447.36,454.45,447.36Zm-.07-173.59a46.32,46.32,0,0,0-19,4.06c-19.63,7.46-33.32,26.1-34.38,46.52-.48,9.23,1.4,18.67,6.13,30.62,9.16,23.25,22.9,43.74,35.16,60.73,3.51,4.86,7.34,9.87,12,15.67l6.06-8.34c7.88-10.8,16-22,23.43-33.25,10.67-16.18,17.89-31.59,22.08-47.15a54.92,54.92,0,0,0-5.89-43,52.53,52.53,0,0,0-33.75-24.33A47.22,47.22,0,0,0,454.38,273.77Z"/><path class="cls-1" d="M453.62,372.26a9.36,9.36,0,0,1-7.39-3.83c-1.69-2.05-3.37-4.23-5-6.44-4.51-6.24-10.13-14.58-13.91-24.14a35.08,35.08,0,0,1-2.89-15.22,29.14,29.14,0,0,1,18.63-25.44,26.67,26.67,0,0,1,17.16-1.32,29,29,0,0,1,18.26,13.25,29.52,29.52,0,0,1,3.19,23.22,67.25,67.25,0,0,1-9.27,19.93c-2.77,4.2-5.76,8.29-8.74,12.4l-2.51,3.47A9.21,9.21,0,0,1,453.62,372.26Zm0-62.79a11.93,11.93,0,0,0-5,1.09,14.89,14.89,0,0,0-9.69,12.82,21.88,21.88,0,0,0,1.87,9.13c3.18,8,7.94,15.12,12.18,21,.15.24.31.44.47.67,2.38-3.24,4.71-6.52,6.9-9.87a52.92,52.92,0,0,0,7.42-15.67,15.28,15.28,0,0,0-1.63-12,14.32,14.32,0,0,0-9.25-6.69A13.45,13.45,0,0,0,453.6,309.47Z"/><path class="cls-2" d="M422.88,152.34c-31.12,0-62.33-.1-93.56-.1s-62.42.1-93.53.1c-23.83,0-38,14.21-38,38q-.15,170,0,340c0,23.06,14.32,37.28,37.36,37.38H423.56c23-.1,37.36-14.32,37.36-37.38V494.7a7.11,7.11,0,1,0-14.22,0v17.15H212V208.33H446.7v31.42h.09a7,7,0,0,0,14,0h.08V190.37C460.92,166.55,446.7,152.34,422.88,152.34ZM212.33,526.84h234c2.59,15.94-6.14,27-21.7,27q-47.55.15-95.3.1t-95.27-.1C218.5,553.83,209.74,542.78,212.33,526.84ZM446.52,193.25H212.15c-1.92-17.1,6.73-27.09,22.86-27.09,31.41-.09,62.91,0,94.31,0s62.93-.09,94.34,0C439.79,166.16,448.44,176.15,446.52,193.25Z"/><path class="cls-2" d="M358.91,174.34H299.76a5.2,5.2,0,1,0,0,10.4h59.15a5.2,5.2,0,1,0,0-10.4Z"/><path class="cls-2" d="M411.58,172.37a7.18,7.18,0,1,0,7.17,7.18A7.18,7.18,0,0,0,411.58,172.37Z"/><path class="cls-1" d="M301.9,282.87a10.35,10.35,0,1,1-12.08-8.31A10.35,10.35,0,0,1,301.9,282.87Z"/><path class="cls-1" d="M325.88,255.4a7.68,7.68,0,1,1-8.95-6.14A7.7,7.7,0,0,1,325.88,255.4Z"/><path class="cls-1" d="M288.38,323.56a10.35,10.35,0,1,1-12.06-8.3A10.32,10.32,0,0,1,288.38,323.56Z"/><path class="cls-1" d="M292.59,366.56a10.35,10.35,0,1,1-12-8.31A10.35,10.35,0,0,1,292.59,366.56Z"/><path class="cls-1" d="M323.43,399.27a10.35,10.35,0,1,1-12-8.29A10.31,10.31,0,0,1,323.43,399.27Z"/><path class="cls-1" d="M371.34,424.14a14.67,14.67,0,1,1-17.09-11.74A14.64,14.64,0,0,1,371.34,424.14Z"/></svg>