<svg id="Layer_1" data-name="Layer 1" xmlns="http://www.w3.org/2000/svg" viewBox="0 0 720 720"><defs><style>.cls-1{fill:#cf302b;}.cls-2{fill:#1076f6;}</style></defs><title>myToolbox</title><path class="cls-1" d="M262.27,274.94c-2.56.71-5.3,1.24-7.91,1.77-2.15.42-4.32.84-6.44,1.37-7,1.72-11,6.62-11.14,13.81-.08,3.4-.08,6.86,0,10.26.14,6.76,3.93,11.67,10.36,13.46l.61.18a41.89,41.89,0,0,0,9.36,1.88c5.8.29,8.77,2.68,9.67,7.78a6.34,6.34,0,0,1-.16,3.81c-1.38,2.43-3,4.8-4.58,7.11-1.14,1.7-2.33,3.44-3.44,5.24-3.72,6-3.18,12.14,1.56,17.3,2.53,2.78,5.19,5.43,7.92,7.9a14,14,0,0,0,9.42,3.93,15,15,0,0,0,7.88-2.39c.43-.26.87-.51,1.32-.79a39,39,0,0,0,6.36-4.39c2.48-2.2,4.75-3.26,7-3.26a10.71,10.71,0,0,1,5.54,1.81c1.84,1.11,2.36,1.6,2.6,3.07.76,4.77,1.78,9.71,3.09,15.07a13.28,13.28,0,0,0,12.17,10.22c.75,0,1.56.06,2.53.06l2,0c1.32,0,2.62,0,3.92,0l2.05,0c.95,0,1.75,0,2.51-.06a13.23,13.23,0,0,0,12.16-10.22c1.32-5.37,2.34-10.3,3.12-15.07.25-1.47.77-2,2.58-3.07a10.68,10.68,0,0,1,5.53-1.81c2.3,0,4.6,1.06,7,3.26a38.45,38.45,0,0,0,6.37,4.39c.44.28.87.53,1.32.79a15,15,0,0,0,7.86,2.39,14,14,0,0,0,9.45-3.93c2.72-2.47,5.37-5.12,7.9-7.9,4.74-5.16,5.3-11.31,1.56-17.3-1.09-1.8-2.29-3.55-3.45-5.24-1.56-2.31-3.18-4.68-4.57-7.11a6.57,6.57,0,0,1-.17-3.81c.91-5.1,3.9-7.49,9.67-7.78a42.38,42.38,0,0,0,9.39-1.88l.6-.18c6.43-1.79,10.17-6.7,10.36-13.46.08-3.4.08-6.86,0-10.26-.19-7.19-4.14-12.09-11.13-13.81-2.14-.53-4.31-.95-6.43-1.37-2.65-.53-5.36-1.06-8-1.77a7,7,0,0,1-2.87-2.61c-3-4.15-2.64-7.92,1.31-12.21a43.25,43.25,0,0,0,4.81-7l.62-1.08c3.55-6,2.83-12.22-2-17.25-2.24-2.37-4.62-4.73-7.24-7.27-5.39-5.15-11.72-5.79-18-1.82-4.42,2.8-8.24,5.36-11.71,7.86a3,3,0,0,1-1.9.7,10.41,10.41,0,0,1-2.37-.42c-5-1.31-7.24-4.12-7.63-9.72a49.89,49.89,0,0,0-1.86-9.22l-.18-.67c-1.76-6.45-6.62-10.28-13.37-10.51-1.18,0-2.43-.08-3.81-.08-.52,0-1.06,0-1.53,0s-1,0-1.54,0c-1.39,0-2.65,0-3.81.08-6.76.23-11.62,4.06-13.35,10.51l-.2.67a48.13,48.13,0,0,0-1.85,9.22c-.4,5.6-2.62,8.41-7.65,9.72a10.41,10.41,0,0,1-2.37.42,2.89,2.89,0,0,1-1.9-.7c-3.43-2.49-7.28-5.06-11.69-7.86-6.31-4-12.61-3.33-18,1.84-2.59,2.47-5,4.91-7.22,7.25-4.82,5-5.54,11.3-2,17.25l.61,1.06a44.07,44.07,0,0,0,4.85,7c3.93,4.29,4.31,8.06,1.28,12.21A6.77,6.77,0,0,1,262.27,274.94Zm13.56,3.18c1.12-2.5,1.59-3.73,2.06-5,.29-.8.6-1.62,1.12-2.84,1.78-3.34,1.55-6.38-.75-9.58-1.57-2.19-3.07-4.51-4.54-6.76s-2.87-4.4-4.41-6.56c-1.66-2.33-1.55-3.64.38-5.33a66.43,66.43,0,0,0,5.56-5.57c1.26-1.45,2.12-1.45,2.4-1.45a4.57,4.57,0,0,1,2.28.92c1.39,1,2.84,1.89,4.24,2.78a75.94,75.94,0,0,1,6.83,4.7,11.78,11.78,0,0,0,7.76,2.9,26.39,26.39,0,0,0,6.73-1.15c10.86-2.91,14.08-10,15.61-19.75.18-1.14.34-2.18.46-3.11.48-3.27.82-5.6,1.48-6.25s2.78-.64,5.39-.64h3.17c2.6,0,4.8,0,5.41.64s1,3,1.45,6.24c.14.94.28,2,.46,3.12,1.52,9.75,4.79,16.84,15.63,19.75a26.39,26.39,0,0,0,6.7,1.15,11.83,11.83,0,0,0,7.78-2.9,77.58,77.58,0,0,1,6.84-4.7c1.39-.9,2.83-1.8,4.24-2.77a4.36,4.36,0,0,1,2.26-.93c.29,0,1.14,0,2.41,1.44a68,68,0,0,0,5.53,5.58c2,1.69,2.06,3,.41,5.33-1.55,2.16-3,4.39-4.4,6.56s-3,4.57-4.56,6.76c-2.29,3.19-2.53,6.24-.73,9.58.5,1.22.81,2,1.09,2.85.47,1.29.93,2.53,2,4.95,2.49,5.92,4.86,7.86,10.62,8.58,3.16.39,6.37,1.08,9.5,1.73,1.48.31,3,.65,4.5.92,2.31.47,2.78,1.53,2.75,3.13v.42c0,1.6,0,3,0,4.24,0,3.52.05,6.08-.53,6.79s-3,1.05-6.33,1.57c-1,.17-2.25.34-3.57.57-9.61,1.58-16.17,4.66-19.12,15.09-1.36,4.87-2.77,9.88,1.78,15.29a62,62,0,0,1,4.74,6.86c.65,1,1.29,2.08,2,3.1.18.25.33.51.52.75a6.65,6.65,0,0,1,.62.94c.45,3.1-1.21,4.53-4.21,6.8a25.36,25.36,0,0,0-3.54,3.12,3.7,3.7,0,0,1-1.57.25,4.92,4.92,0,0,1-2.16-.41,143.21,143.21,0,0,1-13.84-9.08l-.08,0a8.35,8.35,0,0,0-9.61-.66,58,58,0,0,1-9.37,3.91c-3.72,1.12-5.68,3.38-6.31,7.29-.48,2.93-1.12,5.93-1.72,8.8-.5,2.41-1,4.89-1.45,7.36-.44,2.29-1.26,3-3.5,3h-.17c-1.54,0-2.89,0-4.09,0s-2.56,0-4.11,0h-.17c-2.26,0-3.07-.73-3.46-3-.46-2.45-1-4.93-1.48-7.34-.63-2.87-1.23-5.88-1.73-8.82-.65-3.91-2.58-6.17-6.3-7.29A57.6,57.6,0,0,1,303.4,348a8.35,8.35,0,0,0-9.61.66l-.11.07a137.67,137.67,0,0,1-13.84,9.06,4.7,4.7,0,0,1-2.13.41,4.06,4.06,0,0,1-1.57-.25,23.49,23.49,0,0,0-3.57-3.12c-3-2.27-4.64-3.7-4.19-6.77a4.83,4.83,0,0,1,.62-1c.18-.24.38-.5.54-.75.67-1,1.32-2.06,1.95-3.1a64.94,64.94,0,0,1,4.76-6.86c4.54-5.41,3.13-10.42,1.76-15.29-2.93-10.43-9.48-13.51-19.12-15.09-1.31-.23-2.5-.4-3.53-.57-3.37-.52-5.79-.89-6.35-1.57s-.56-3.27-.52-6.79v-4.7c0-1.56.43-2.62,2.77-3.08,1.51-.28,3-.62,4.5-.93,3.13-.65,6.34-1.34,9.48-1.73C271,285.91,273.38,284,275.83,278.12Z"/><path class="cls-1" d="M463.29,394.78l.41-.68A8.72,8.72,0,0,0,462.43,383c-1.44-1.52-3-3-4.7-4.68-3.46-3.33-7.53-3.75-11.59-1.18-2.86,1.81-5.31,3.47-7.53,5.09a2.14,2.14,0,0,1-1.25.44,7.38,7.38,0,0,1-1.54-.29c-3.24-.82-4.64-2.65-4.89-6.25a34.24,34.24,0,0,0-1.23-6l-.11-.43a8.77,8.77,0,0,0-8.62-6.8c-.77,0-1.57,0-2.46,0h-2c-.89,0-1.7,0-2.47,0a8.74,8.74,0,0,0-8.61,6.8l-.14.42a33.57,33.57,0,0,0-1.19,6c-.25,3.6-1.69,5.43-4.91,6.25a7.16,7.16,0,0,1-1.54.29,2.07,2.07,0,0,1-1.23-.44c-2.23-1.62-4.68-3.28-7.55-5.09-4.06-2.57-8.14-2.15-11.62,1.18-1.66,1.61-3.24,3.18-4.67,4.68a8.77,8.77,0,0,0-1.29,11.14l.41.68a28,28,0,0,0,3.1,4.53c2.56,2.77,2.81,5.21.87,7.88a4.62,4.62,0,0,1-1.89,1.69c-1.65.46-3.41.81-5.13,1.13-1.34.27-2.76.54-4.13.89a8.8,8.8,0,0,0-7.19,8.91c0,2.19,0,4.43,0,6.63a8.74,8.74,0,0,0,6.69,8.68l.38.12a28.45,28.45,0,0,0,6,1.2c3.74.18,5.66,1.74,6.26,5a4.28,4.28,0,0,1-.12,2.46c-.89,1.57-1.94,3.11-3,4.58-.73,1.1-1.51,2.23-2.23,3.39a8.7,8.7,0,0,0,1,11.17c1.62,1.78,3.33,3.49,5.1,5.1a9,9,0,0,0,6.08,2.53,9.73,9.73,0,0,0,5.09-1.55l.84-.49a24.39,24.39,0,0,0,4.11-2.85,7,7,0,0,1,4.54-2.12,6.89,6.89,0,0,1,3.57,1.18c1.18.71,1.53,1.05,1.67,2,.5,3.09,1.19,6.27,2,9.72a8.53,8.53,0,0,0,7.81,6.6c.52,0,1,0,1.64,0h1.33c.84,0,1.67,0,2.53,0h1.31c.6,0,1.12,0,1.61,0a8.54,8.54,0,0,0,7.85-6.58c.86-3.47,1.51-6.66,2-9.74.15-.93.5-1.27,1.69-2a5.92,5.92,0,0,1,8.09.94,25.45,25.45,0,0,0,4.14,2.85c.25.16.54.34.81.49a9.8,9.8,0,0,0,5.08,1.55,9,9,0,0,0,6.08-2.53c1.79-1.61,3.49-3.32,5.14-5.1a8.7,8.7,0,0,0,1-11.17c-.73-1.16-1.47-2.29-2.23-3.39-1-1.49-2.06-3-2.94-4.58a4.2,4.2,0,0,1-.12-2.46c.59-3.29,2.52-4.85,6.25-5a28.7,28.7,0,0,0,6.05-1.2l.4-.12a8.78,8.78,0,0,0,6.69-8.68c0-2.2,0-4.44,0-6.63a8.84,8.84,0,0,0-7.2-8.91c-1.38-.35-2.8-.62-4.16-.89-1.68-.32-3.47-.67-5.14-1.13a4.71,4.71,0,0,1-1.85-1.69c-2-2.67-1.71-5.11.83-7.9A23.4,23.4,0,0,0,463.29,394.78Zm-4,21.64c2,.26,4.12.68,6.11,1.11,1,.21,1.94.41,2.93.59,1.5.31,1.79,1,1.78,2v.28c0,1,0,1.95,0,2.74,0,2.28,0,3.92-.35,4.38s-2,.67-4.09,1c-.69.09-1.45.23-2.29.35-6.2,1-10.45,3-12.36,9.76-.85,3.14-1.77,6.38,1.16,9.86a37.65,37.65,0,0,1,3.07,4.43c.41.67.82,1.34,1.28,2,.11.17.21.32.33.48a6.74,6.74,0,0,1,.4.61c.27,2-.81,2.93-2.71,4.38a15.12,15.12,0,0,0-2.28,2,3.43,3.43,0,0,1-1,.14,3.25,3.25,0,0,1-1.38-.25,93.37,93.37,0,0,1-8.94-5.85l-.05,0a5.44,5.44,0,0,0-6.22-.44,32.67,32.67,0,0,1-6.05,2.52,5.38,5.38,0,0,0-4,4.72c-.33,1.91-.73,3.81-1.12,5.68-.32,1.55-.67,3.15-.94,4.73s-.81,1.95-2.27,1.95h-5.51c-1.46,0-2-.43-2.23-1.95s-.64-3.17-.95-4.72c-.38-1.87-.8-3.77-1.11-5.69a5.35,5.35,0,0,0-4.07-4.72,33.17,33.17,0,0,1-6-2.52,5.43,5.43,0,0,0-6.21.44l-.07.06a95.67,95.67,0,0,1-8.93,5.83,3.23,3.23,0,0,1-1.39.25,3.1,3.1,0,0,1-1-.14,15.85,15.85,0,0,0-2.31-2c-1.9-1.45-3-2.37-2.69-4.37a4.2,4.2,0,0,1,.39-.62,3,3,0,0,0,.34-.48c.45-.66.88-1.33,1.3-2a34.26,34.26,0,0,1,3.05-4.43c2.92-3.48,2-6.73,1.14-9.86-1.91-6.72-6.13-8.73-12.35-9.76-.83-.12-1.6-.26-2.29-.35-2.16-.34-3.73-.57-4.06-1s-.39-2.1-.36-4.38c0-.79,0-1.72,0-2.74v-.11a1.1,1.1,0,0,0,0-.21c0-1,.29-1.67,1.78-2,1-.18,1.94-.38,2.92-.59,2-.43,4.08-.85,6.1-1.11,3.72-.48,5.26-1.73,6.82-5.51a29,29,0,0,0,1.34-3.24c.17-.51.4-1.05.73-1.83a5.36,5.36,0,0,0-.48-6.17c-1-1.42-2-2.93-2.94-4.37s-1.85-2.85-2.83-4.25-1-2.33.23-3.44a40.42,40.42,0,0,0,3.6-3.58c.81-.92,1.35-.92,1.55-.92a2.78,2.78,0,0,1,1.46.57c.88.63,1.81,1.23,2.73,1.8a46.29,46.29,0,0,1,4.4,3.06,7.7,7.7,0,0,0,5,1.84,17.08,17.08,0,0,0,4.35-.73c7-1.87,9.09-6.44,10.08-12.74l.3-2c.33-2.08.54-3.61.95-4s1.79-.4,3.48-.4h2c1.68,0,3.12,0,3.48.4s.65,1.95.94,4c.08.61.22,1.28.32,2,1,6.3,3.06,10.87,10.07,12.74a17.07,17.07,0,0,0,4.33.73,7.64,7.64,0,0,0,5-1.84,42.3,42.3,0,0,1,4.44-3.06c.89-.57,1.81-1.17,2.71-1.8a2.69,2.69,0,0,1,1.47-.57c.18,0,.73,0,1.56.91a34.74,34.74,0,0,0,3.59,3.59c1.24,1.11,1.32,2,.25,3.44s-1.93,2.84-2.85,4.25-2,2.95-3,4.37a5.36,5.36,0,0,0-.46,6.17c.33.78.52,1.32.69,1.83.33.86.6,1.65,1.33,3.21C454,414.69,455.58,415.94,459.31,416.42Z"/><path class="cls-1" d="M330,320.14a23.24,23.24,0,1,0-23.25-23.22A23.21,23.21,0,0,0,330,320.14Z"/><path class="cls-1" d="M417.52,409.6A13.45,13.45,0,1,0,431,423,13.46,13.46,0,0,0,417.52,409.6Z"/><path class="cls-2" d="M552.11,243.05H427.27a9.4,9.4,0,1,0,0,18.79H542.71V465.75l-12.9,12V298.31a23.52,23.52,0,0,0-23.48-23.48H448.11a9.45,9.45,0,1,0,0,18.9h58.22a4.58,4.58,0,0,1,4.58,4.58V492.86a4.59,4.59,0,0,1-4.58,4.58H182a4.59,4.59,0,0,1-4.58-4.58V298.31a4.57,4.57,0,0,1,4.58-4.58h24.48a9.45,9.45,0,1,0,0-18.9h-8l12.2-12.39h24.9a9.76,9.76,0,0,0,0-19.51h-29a9.8,9.8,0,0,0-6.94,2.91l-36.1,36.7a9.69,9.69,0,0,0-2.7,5.78,23.24,23.24,0,0,0-2.32,10V492.86A23.53,23.53,0,0,0,182,516.35H506.33A23.18,23.18,0,0,0,520,511.88a9.12,9.12,0,0,0,2.41-1.58l36.12-33.57a9.39,9.39,0,0,0,3-6.88V252.44A9.39,9.39,0,0,0,552.11,243.05Z"/></svg>