<svg id="Layer_1" data-name="Layer 1" xmlns="http://www.w3.org/2000/svg" viewBox="0 0 720 720"><defs><style>.cls-1{fill:#cf302b;}.cls-2{fill:#1076f6;}</style></defs><title>myWallet</title><path class="cls-1" d="M413.23,211.61l-3.29.88a11.23,11.23,0,0,0-.37-1.9v-.08a19.74,19.74,0,0,0-.73-2l3.37-.87a1.78,1.78,0,0,0,1.25-2.06,1.74,1.74,0,0,0-2.13-1.24l-4.4,1.1a10.6,10.6,0,0,0-3.72-3.07c-5-2.57-10.55-1-11.27-.74l-10.62,2.78,1.83,7.18-2.48.58a1.8,1.8,0,0,0-1.24,2.12,1.71,1.71,0,0,0,2.12,1.25l2.49-.59,1,3.95-2.49.66a1.72,1.72,0,0,0-1.25,2.12,1.79,1.79,0,0,0,2.12,1.25l2.49-.66,5.13,20a1.71,1.71,0,0,0,2.12,1.24,1.78,1.78,0,0,0,1.25-2.12l-3.37-13,11.26-3h.16a10.44,10.44,0,0,0,7.46-9.29L414,215a1.66,1.66,0,0,0,1.24-2.12A1.72,1.72,0,0,0,413.23,211.61Zm-27.65-4.76,7.31-1.9H393c0-.07,4.67-1.61,8.55.44a10.76,10.76,0,0,1,1.54,1l-16.61,4.32Zm15.87,15.22L390.17,225l-.87-3.66L406.21,217A6.82,6.82,0,0,1,401.45,222.07Zm-13-4.1-1-3.95,18-4.68a21.2,21.2,0,0,1,.81,2.12,8.37,8.37,0,0,1,.29,1.91Z"/><path class="cls-1" d="M399.17,261.7a40.9,40.9,0,1,1,40.28-33.48,4.09,4.09,0,0,1-8-1.49,32.77,32.77,0,0,0-.5-14.07,32.7,32.7,0,1,0-23.52,39.81,33.4,33.4,0,0,0,5.22-1.82,4.09,4.09,0,1,1,3.34,7.47,40,40,0,0,1-6.54,2.27A40.68,40.68,0,0,1,399.17,261.7Z"/><path class="cls-2" d="M439.73,440.58a10.59,10.59,0,0,1-10.6,10.58h0a10.59,10.59,0,0,1-10.59-10.58h0A10.59,10.59,0,0,1,429.13,430h0a10.59,10.59,0,0,1,10.6,10.59Z"/><path class="cls-2" d="M494.74,397.44H478.83V333.13c0-5.28-5-9.56-11.13-9.56H397.05V309.94H467.7c14.9,0,27,10.39,27,23.19Z"/><path class="cls-1" d="M413.31,291.81a6.58,6.58,0,0,0-3.8-3.81L300.9,245.93a6.84,6.84,0,0,0-8.7,3.59l-27.37,60.37h4.39v13.68H258.61l-7.83,17.49v.07L249,345.08a6.49,6.49,0,0,0,.44,6.51,6.71,6.71,0,0,0,5.71,3.07h128a6.66,6.66,0,0,0,6.23-4l4.24-9.51v-.07l7.83-17.49L407.52,310v-.07l5.71-12.74A6.47,6.47,0,0,0,413.31,291.81Zm-34.54,49.25v.07H265.71v-.07L302,261l95.86,37.17Z"/><path class="cls-1" d="M371.5,327.19a4,4,0,0,1-1.57-.32,4.06,4.06,0,0,1-2.2-5.34L372.52,310l-60.46-24.38-6.49,14a4.09,4.09,0,1,1-7.42-3.46l8.13-17.48a4.09,4.09,0,0,1,5.24-2.06l67.89,27.38a4.07,4.07,0,0,1,2.25,5.36l-6.37,15.39A4.11,4.11,0,0,1,371.5,327.19Z"/><polygon class="cls-1" points="269.19 309.91 269.19 323.58 258.64 323.58 264.86 309.91 269.19 309.91"/><path class="cls-2" d="M264.86,309.91l-6.22,13.67H241.87a9.55,9.55,0,0,0-9.55,9.56v15.71H218.73V333.14a23.21,23.21,0,0,1,23.14-23.23Z"/><path class="cls-2" d="M494.75,483.75v2c0,9.74-7,18.45-17.65,21.74V490.84a8.36,8.36,0,0,0,1.77-5.12v-2Z"/><path class="cls-2" d="M478.87,407.21H427.5a33.37,33.37,0,0,0,0,66.73h51.37a33.37,33.37,0,1,0,0-66.73Zm0,53.06H427.5a19.69,19.69,0,1,1,0-39.38h51.37a19.69,19.69,0,1,1,0,39.38Z"/><path class="cls-1" d="M469.29,253,465,251.71a11.57,11.57,0,0,0-1.62-4.61c-3-4.68-8.62-6.15-9.37-6.29l-10.53-3.08-2.05,7.1-2.48-.73a1.79,1.79,0,0,0-2.12,1.17,1.72,1.72,0,0,0,1.17,2.2l2.49.65-1.18,4-2.48-.73a1.71,1.71,0,1,0-.95,3.29l2.41.73-5.78,19.83a1.81,1.81,0,0,0,1.17,2.13,1.75,1.75,0,0,0,2.2-1.18l3.72-12.88,11.19,3.22h.15a10.41,10.41,0,0,0,11.2-4.17l4.1,1.18a1.69,1.69,0,0,0,2.12-1.18,1.73,1.73,0,0,0-1.16-2.12l-3.24-.95a10,10,0,0,0,.67-1.83v-.08a10.43,10.43,0,0,0,.37-2l3.36.95a1.76,1.76,0,0,0,2.12-1.17A1.74,1.74,0,0,0,469.29,253Zm-23.49-10.9,7.31,2.12h.08c.06,0,4.9,1.1,7.25,4.83a12.48,12.48,0,0,1,.73,1.61l-16.47-4.83Zm5.92,21.14L440.6,260l1-3.59,16.76,4.9A6.56,6.56,0,0,1,451.72,263.19Zm9.51-6.65a11.76,11.76,0,0,1-.73,1.75l-17.92-5.19,1.16-3.95,17.86,5.19A11.24,11.24,0,0,1,461.23,256.54Z"/><path class="cls-1" d="M461.89,221.78a40.55,40.55,0,0,0-11.42-1.61,38,38,0,0,0-10.39,1.39,34.54,34.54,0,0,0-8.41,3.3,40.92,40.92,0,0,0-20.48,24.73c-.15.58-.31,1.17-.44,1.76a41.92,41.92,0,0,0-1.18,9,41.14,41.14,0,0,0,29.42,40,40.9,40.9,0,1,0,22.9-78.52Zm20,48.44a33,33,0,0,1-31.41,23.49,32.75,32.75,0,0,1-31.39-41.86,33.06,33.06,0,0,1,17.64-20.49l.87-.43a33.41,33.41,0,0,1,12.88-2.64,33,33,0,0,1,31.41,41.93Z"/><path class="cls-2" d="M456.26,397.47V364.26a9.5,9.5,0,0,0-9.51-9.52H231a9.23,9.23,0,0,0-3.14.51,9.56,9.56,0,0,0-6.37,9V516.89a9.49,9.49,0,0,0,9.51,9.52h215.8a9.5,9.5,0,0,0,9.51-9.52V483.75h13.68v33.14a23.2,23.2,0,0,1-23.19,23.2H231a23.2,23.2,0,0,1-23.19-23.2V364.26a22.92,22.92,0,0,1,11-19.61,19.91,19.91,0,0,1,4.54-2.28,22.54,22.54,0,0,1,7.68-1.31h215.8a23.2,23.2,0,0,1,23.19,23.2v33.21Z"/></svg>